<?xml version="1.0" encoding="utf-8"?>
<!-- Generator: Adobe Illustrator 26.3.1, SVG Export Plug-In . SVG Version: 6.00 Build 0)  -->
<svg version="1.1" id="Layer_1" xmlns="http://www.w3.org/2000/svg" xmlns:xlink="http://www.w3.org/1999/xlink" x="0px" y="0px"
	 viewBox="0 0 357.4 116.8" style="enable-background:new 0 0 357.4 116.8;" xml:space="preserve">
<style type="text/css">
	.st0{fill-rule:evenodd;clip-rule:evenodd;fill:#00ACAE;}
	.st1{fill-rule:evenodd;clip-rule:evenodd;fill:#C0E338;}
	.st2{fill-rule:evenodd;clip-rule:evenodd;fill:#B94FA8;}
	.st3{fill-rule:evenodd;clip-rule:evenodd;fill:#FF1A6E;}
	.st4{fill-rule:evenodd;clip-rule:evenodd;fill:#2E3192;}
	.st5{fill-rule:evenodd;clip-rule:evenodd;fill:#FF5E23;}
	.st6{fill-rule:evenodd;clip-rule:evenodd;fill:#FFE731;}
	.st7{fill-rule:evenodd;clip-rule:evenodd;}
</style>
<g>
	<circle class="st0" cx="255.2" cy="29.8" r="4.2"/>
	<circle class="st1" cx="280.5" cy="4.8" r="4.2"/>
	<circle class="st2" cx="301" cy="30.1" r="4.2"/>
	<circle class="st3" cx="326.6" cy="4.8" r="4.2"/>
	<circle class="st4" cx="352.6" cy="30.1" r="4.2"/>
	<path class="st5" d="M329.5,80.1c0,2.3-1.9,4.2-4.2,4.2c-2.3,0-4.2-1.9-4.2-4.2c0-2.3,1.9-4.2,4.2-4.2
		C327.6,76,329.5,77.8,329.5,80.1z"/>
	<path class="st6" d="M344.9,111.5c0,2.3-1.9,4.2-4.2,4.2c-2.3,0-4.2-1.9-4.2-4.2s1.9-4.2,4.2-4.2
		C343,107.4,344.9,109.2,344.9,111.5z"/>
	<path class="st7" d="M352.4,33.2c-1.7,0-3-1.4-3-3c0-1.7,1.3-3,3-3c1.7,0,3,1.4,3,3C355.4,31.8,354.1,33.2,352.4,33.2z
		 M340.8,106.8c-0.6,0-1.1,0.1-1.6,0.3l-11-22.2c1.6-0.9,2.7-2.5,2.7-4.4c0-1.6-0.8-3.1-2-4l21.4-41.8l0.2,0.1L340.8,106.8z
		 M343.8,111.8c0,1.7-1.4,3-3,3c-1.7,0-3-1.4-3-3c0-1.7,1.4-3,3-3C342.5,108.7,343.8,110.1,343.8,111.8z M322.8,80.4
		c0-1.7,1.4-3,3-3c1.7,0,3,1.4,3,3s-1.4,3-3,3C324.1,83.4,322.8,82.1,322.8,80.4z M303.8,34.3c1.1-0.7,1.9-1.9,2.1-3.2h41.5
		c0.2,0.8,0.6,1.6,1.1,2.2L327,75.5c-0.4-0.1-0.8-0.2-1.2-0.2c-0.4,0-0.8,0.1-1.2,0.2L303.8,34.3z M298,30.1c0-1.7,1.4-3,3-3
		c1.7,0,3,1.4,3,3c0,1.7-1.4,3-3,3C299.4,33.2,298,31.8,298,30.1z M255.1,33.2c-1.7,0-3-1.4-3-3c0-1.7,1.4-3,3-3c1.7,0,3,1.4,3,3
		C258.1,31.8,256.8,33.2,255.1,33.2z M280.7,2c1.7,0,3,1.3,3,3c0,0.6-0.2,1.2-0.5,1.7l-1.3,1.1l0,0c-0.4,0.2-0.8,0.2-1.2,0.2
		c-1.7,0-3-1.4-3-3C277.7,3.3,279,2,280.7,2z M326.7,2c1.7,0,3,1.3,3,3c0,1.7-1.4,3-3,3c-1.7,0-3-1.4-3-3C323.7,3.3,325.1,2,326.7,2
		z M259,27l18.2-18.4c0.9,0.9,2.1,1.4,3.5,1.4c0.9,0,1.7-0.2,2.5-0.7l14.1,17.6c-0.5,0.6-0.9,1.4-1.1,2.2H260
		C259.9,28.3,259.5,27.6,259,27z M298.8,25.7L284.7,8c0.4-0.6,0.8-1.3,0.9-2h36.2c0.1,0.7,0.5,1.4,0.9,2l-19.1,17.8
		c-0.8-0.4-1.6-0.7-2.6-0.7C300.2,25.1,299.5,25.3,298.8,25.7z M347.5,29.1H306c-0.1-0.7-0.5-1.4-0.9-2l19.1-17.9
		c0.7,0.4,1.6,0.7,2.5,0.7c1,0,2-0.3,2.8-0.9l18.9,18C348,27.8,347.6,28.4,347.5,29.1z M352.4,25.1c-0.9,0-1.8,0.3-2.5,0.7
		L330.9,7.8c0.5-0.8,0.8-1.7,0.8-2.7c0-2.8-2.2-5-5-5c-2.4,0-4.5,1.7-4.9,4h-36.2c-0.5-2.3-2.5-4-4.9-4c-2.8,0-5,2.2-5,5
		c0,0.7,0.1,1.3,0.4,1.9l-18.6,18.8c-0.7-0.4-1.5-0.6-2.4-0.6c-2.8,0-5,2.2-5,5c0,2.8,2.3,5,5,5c2.4,0,4.5-1.7,4.9-4h36.1
		c0.5,2.3,2.5,4,4.9,4c0.3,0,0.6,0,0.9-0.1l20.8,41.3c-1.2,0.9-2,2.4-2,4c0,2.8,2.2,5,5,5c0.1,0,0.3,0,0.4,0l11.2,22.7
		c-1,0.9-1.6,2.2-1.6,3.7c0,2.8,2.2,5,5,5c2.8,0,5-2.2,5-5c0-2.1-1.3-3.9-3.1-4.6l9.5-72l0.1,0c2.8,0,5-2.2,5-5
		C357.4,27.4,355.2,25.1,352.4,25.1z"/>
	<path class="st7" d="M95.1,102.3h5.6v-1.4h-4v-2.8h3.8v-1.4h-3.8v-2.4h4v-1.4h-5.6V102.3z M182.6,98.2l0.8-2.5
		c0.1-0.5,0.2-1,0.3-1.4h0.1c0.1,0.5,0.2,1,0.3,1.4l0.7,2.5H182.6z M182.5,93l-2.7,9.2h1.7l0.8-2.6h2.9l0.8,2.6h1.8L185,93H182.5z
		 M91.6,96.3c0,1.5-0.7,1.9-1.9,1.9c-0.3,0-0.6,0-0.9,0v-3.8H89c1.7,0,2.6,0,2.6,1.8V96.3z M89.5,92.9c-0.8,0-1.6,0-2.4,0.1v9.2h1.6
		v-2.6c0.3,0,0.6,0,0.9,0c1.8,0,3.6-0.4,3.6-3.3v-0.2C93.2,93.3,91.5,92.9,89.5,92.9z M176.9,96.3c0,1.5-0.7,1.9-2,1.9
		c-0.3,0-0.6,0-0.9,0v-3.8h0.2c1.7,0,2.6,0,2.6,1.8V96.3z M174.9,92.9c-0.8,0-1.6,0-2.4,0.1v9.2h1.6v-2.6c0.3,0,0.6,0,0.9,0
		c1.9,0,3.6-0.4,3.6-3.3v-0.2C178.5,93.3,176.8,92.9,174.9,92.9z M77.7,98.2l0.8-2.5c0.1-0.5,0.2-1,0.3-1.4h0.1
		c0.1,0.5,0.2,1,0.3,1.4l0.7,2.5H77.7z M77.6,93l-2.7,9.2h1.7l0.8-2.6h2.9l0.8,2.6h1.8L80.1,93H77.6z M53.4,98.1
		c0,2.1-0.8,2.8-1.9,2.8c-1.1,0-1.9-0.7-1.9-2.8v-1.1c0-2.1,0.7-2.8,1.9-2.8c1.1,0,1.9,0.7,1.9,2.8V98.1z M51.5,92.9
		c-2.1,0-3.5,1.2-3.5,4.2v1.1c0,3,1.3,4.2,3.5,4.2c2.1,0,3.5-1.2,3.5-4.2v-1.1C55,94.1,53.6,92.9,51.5,92.9z M199.5,98.2l0.8-2.5
		c0.1-0.5,0.2-1,0.3-1.4h0.1c0.1,0.5,0.2,1,0.3,1.4l0.8,2.5H199.5z M199.4,93l-2.7,9.2h1.7l0.8-2.6h2.9l0.8,2.6h1.8l-2.7-9.2H199.4z
		 M61.3,96.2c0,1.5-0.6,1.9-2,1.9c-0.3,0-0.5,0-0.8,0v-3.8C60.5,94.3,61.3,94.3,61.3,96.2L61.3,96.2z M63,96.2v-0.1
		c0-2.8-1.8-3.2-3.7-3.2c-0.8,0-1.6,0-2.4,0.1v9.2h1.6v-2.6h0.7c0.2,0,0.5,0,0.7,0l1.8,2.6h1.8l-2.1-3C62.4,98.8,63,98,63,96.2z
		 M69.9,96.8c-0.2,0.4-0.4,0.8-0.6,1.3h0c-0.2-0.4-0.4-0.9-0.6-1.2L66.7,93h-1.8v9.2h1.6v-4.8c0-0.6,0-1.1,0-1.7h0
		c0.2,0.5,0.4,0.9,0.7,1.4l1.4,2.7H70l1.4-2.7c0.2-0.4,0.4-0.9,0.6-1.4h0C72,96.3,72,96.8,72,97.4v4.8h1.6V93h-1.8L69.9,96.8z
		 M193.8,96.2c0,1.5-0.6,1.9-2,1.9c-0.3,0-0.6,0-0.8,0v-3.8C193,94.3,193.8,94.3,193.8,96.2L193.8,96.2z M195.5,96.2v-0.1
		c0-2.8-1.8-3.2-3.7-3.2c-0.8,0-1.6,0-2.4,0.1v9.2h1.6v-2.6h0.7c0.2,0,0.5,0,0.7,0l1.8,2.6h1.8l-2.1-3
		C194.9,98.8,195.5,98,195.5,96.2z M128,98.2c0,2.1-0.8,2.7-2.6,2.7h-1.1v-6.6h1.1c1.8,0,2.6,0.6,2.6,2.7V98.2z M125.5,92.9
		c-1.2,0-1.7,0-2.8,0.1v9.3c1.1,0,1.7,0.1,2.8,0.1c3,0,4.1-1.4,4.1-4.1V97C129.6,94.2,128.5,92.9,125.5,92.9z M131.6,102.2h1.6v-8.6
		h-1.6V102.2z M163.1,98.2l0.8-2.5c0.1-0.5,0.2-1,0.3-1.4h0.1c0.1,0.5,0.2,1,0.3,1.4l0.8,2.5H163.1z M162.9,93l-2.7,9.2h1.7l0.8-2.6
		h2.9l0.8,2.6h1.8l-2.7-9.2H162.9z M131.4,93h1.4l1.9-1.7h-1.8L131.4,93z M139.1,96.9l-1.2-0.5c-0.9-0.4-1.1-0.6-1.1-1.2
		c0-0.7,0.6-0.9,1.6-0.9c0.9,0,1.8,0.1,2.5,0.2v-1.3c-0.4-0.1-1.4-0.3-2.5-0.3c-2.1,0-3.2,0.6-3.2,2.4c0,1.3,0.7,2.1,2,2.6l1.3,0.6
		c0.9,0.4,1.1,0.7,1.1,1.3c0,0.8-0.5,1.1-1.6,1.1c-1.1,0-2-0.1-2.7-0.1v1.3c0.4,0.1,1.7,0.3,2.8,0.3c2,0,3.1-0.9,3.1-2.6
		C141.2,98.2,140.6,97.6,139.1,96.9z M110.3,102.2h1.6V93h-1.6V102.2z M106.7,96.2c0,1.5-0.6,1.9-2,1.9c-0.3,0-0.6,0-0.8,0v-3.8
		C105.8,94.3,106.7,94.3,106.7,96.2L106.7,96.2z M108.3,96.2v-0.1c0-2.8-1.8-3.2-3.7-3.2c-0.8,0-1.6,0-2.4,0.1v9.2h1.6v-2.6h0.7
		c0.2,0,0.5,0,0.7,0l1.8,2.6h1.8l-2.1-3C107.7,98.8,108.3,98,108.3,96.2z M153.8,97v1.2c0,3.2,1.4,4.1,3.7,4.1
		c0.8,0,1.8-0.1,2.3-0.2v-1.3c-0.6,0-1.4,0.1-2.1,0.1c-1.5,0-2.2-0.6-2.2-2.7V97c0-2.1,0.7-2.7,2.2-2.7c0.7,0,1.6,0.1,2.1,0.1v-1.3
		c-0.4-0.1-1.5-0.2-2.3-0.2C155.2,92.9,153.8,93.7,153.8,97z M150.3,102.2h1.6V93h-1.6V102.2z M119.1,98.1c0,2.1-0.7,2.8-1.9,2.8
		c-1.1,0-1.9-0.7-1.9-2.8v-1.1c0-2.1,0.7-2.8,1.9-2.8c1.1,0,1.9,0.7,1.9,2.8V98.1z M117.3,92.9c-2.1,0-3.5,1.2-3.5,4.2v1.1
		c0,3,1.3,4.2,3.5,4.2c2.1,0,3.5-1.2,3.5-4.2v-1.1C120.7,94.1,119.4,92.9,117.3,92.9z M228.9,96.9l-1.2-0.5
		c-0.9-0.4-1.1-0.6-1.1-1.2c0-0.7,0.6-0.9,1.6-0.9c0.9,0,1.8,0.1,2.4,0.2v-1.3c-0.4-0.1-1.4-0.3-2.5-0.3c-2.1,0-3.2,0.6-3.2,2.4
		c0,1.3,0.7,2.1,2,2.6l1.3,0.6c0.9,0.4,1.1,0.7,1.1,1.3c0,0.8-0.5,1.1-1.6,1.1c-1.1,0-1.9-0.1-2.7-0.1v1.3c0.5,0.1,1.6,0.3,2.8,0.3
		c2,0,3.1-0.9,3.1-2.6C231,98.2,230.4,97.6,228.9,96.9z M248.6,96.8c-0.2,0.4-0.4,0.8-0.6,1.3h0c-0.2-0.4-0.4-0.9-0.6-1.2l-1.9-3.8
		h-1.8v9.2h1.6v-4.8c0-0.6,0-1.1-0.1-1.7h0c0.2,0.5,0.4,0.9,0.6,1.4l1.4,2.7h1.4l1.4-2.7c0.2-0.4,0.5-0.9,0.7-1.4h0
		c0,0.6-0.1,1.1-0.1,1.7v4.8h1.6V93h-1.9L248.6,96.8z M259.6,91.3h-1.8l-1.5,1.6h-2v9.4h5.6v-1.4h-4v-2.8h3.8v-1.4h-3.8v-2.4h4v-1.4
		h-2.1L259.6,91.3z M265.8,96.2c0,1.5-0.6,1.9-2,1.9c-0.3,0-0.5,0-0.8,0v-3.8C265,94.3,265.8,94.3,265.8,96.2L265.8,96.2z
		 M267.5,96.2v-0.1c0-2.8-1.8-3.2-3.7-3.2c-0.8,0-1.6,0-2.4,0.1v9.2h1.6v-2.6h0.7c0.2,0,0.5,0,0.7,0l1.8,2.6h1.8l-2.1-3
		C266.9,98.8,267.5,98,267.5,96.2z M210.5,93h-1.6v9.3h5.4v-1.4h-3.8V93z M292.9,96.9l-1.2-0.5c-0.9-0.4-1.1-0.6-1.1-1.2
		c0-0.7,0.6-0.9,1.6-0.9c0.9,0,1.8,0.1,2.4,0.2v-1.3c-0.4-0.1-1.4-0.3-2.5-0.3c-2.1,0-3.2,0.6-3.2,2.4c0,1.3,0.7,2.1,2,2.6l1.3,0.6
		c0.9,0.4,1.1,0.7,1.1,1.3c0,0.8-0.5,1.1-1.6,1.1c-1.1,0-1.9-0.1-2.7-0.1v1.3c0.4,0.1,1.6,0.3,2.8,0.3c2,0,3-0.9,3-2.6
		C295,98.2,294.4,97.6,292.9,96.9z M269.4,102.2h1.6V93h-1.6V102.2z M273,97v1.2c0,3.2,1.4,4.1,3.7,4.1c0.8,0,1.8-0.1,2.2-0.2v-1.3
		c-0.6,0-1.5,0.1-2.1,0.1c-1.5,0-2.2-0.6-2.2-2.7V97c0-2.1,0.7-2.7,2.2-2.7c0.7,0,1.5,0.1,2.1,0.1v-1.3c-0.4-0.1-1.5-0.2-2.2-0.2
		C274.4,92.9,273,93.7,273,97z M282.2,98.2l0.8-2.5c0.1-0.5,0.2-1,0.3-1.4h0.1c0.1,0.5,0.2,1,0.3,1.4l0.7,2.5H282.2z M282.1,93
		l-2.7,9.2h1.7l0.8-2.6h2.9l0.8,2.6h1.8l-2.7-9.2H282.1z M141.4,94.3h2.7v7.9h1.6v-7.9h2.7v-1.4h-6.9V94.3z M23.1,94.3h2.7v7.9h1.6
		v-7.9h2.7v-1.4h-6.9V94.3z M40.9,102.2h1.6v-4.1h3.8v-1.4h-3.8v-2.4h4v-1.4h-5.6V102.2z M218.2,98.2l0.8-2.5c0.1-0.5,0.2-1,0.3-1.4
		h0.1c0.1,0.5,0.2,1,0.3,1.4l0.7,2.5H218.2z M218.1,93l-2.7,9.2h1.7l0.8-2.6h2.9l0.8,2.6h1.8l-2.7-9.2H218.1z M34.1,98.2l0.8-2.5
		c0.1-0.5,0.2-1,0.3-1.4h0.1c0.1,0.5,0.2,1,0.3,1.4l0.7,2.5H34.1z M34,93l-2.7,9.2H33l0.8-2.6h2.9l0.8,2.6h1.8L36.5,93H34z
		 M4.4,96.3c0,1.5-0.6,1.9-1.9,1.9c-0.3,0-0.6,0-0.9,0v-3.8h0.2c1.7,0,2.6,0,2.6,1.8V96.3z M2.4,92.9c-0.8,0-1.6,0-2.4,0.1v9.2h1.6
		v-2.6c0.3,0,0.6,0,0.9,0c1.8,0,3.6-0.4,3.6-3.3v-0.2C6.1,93.3,4.4,92.9,2.4,92.9z M17.3,98.2l0.8-2.5c0.1-0.5,0.2-1,0.3-1.4h0.1
		c0.1,0.5,0.2,1,0.3,1.4l0.8,2.5H17.3z M17.1,93l-2.7,9.2h1.7l0.8-2.6h2.9l0.8,2.6h1.8L19.6,93H17.1z M9.6,93H8v9.3h5.4v-1.4H9.6V93
		z M236.9,98.2l0.8-2.5c0.1-0.5,0.2-1,0.3-1.4h0.1c0.1,0.5,0.2,1,0.3,1.4l0.8,2.5H236.9z M236.7,93l-2.7,9.2h1.7l0.8-2.6h2.9
		l0.8,2.6h1.8l-2.7-9.2H236.7z"/>
	<path class="st7" d="M244.6,58c0.5-1.8,0.8-3.7,1.1-5.6h0.3c0.3,1.9,0.7,3.8,1.1,5.6l2.6,9.7h-7.7L244.6,58z M250.9,74.1l2.6,9.2
		h9.4L252.9,47h-13.9l-10,36.3h9.2l2.6-9.2H250.9z M230,46.9h-29.5v6.4h10.3v29.9h8.9V53.3H230V46.9z M133.8,83.3V47h-8.1v17.7
		c0,2.2,0.1,4.6,0.2,6.3h-0.1c-0.7-1.6-1.7-3.6-2.6-5.2L112.8,47h-9.1v36.3h8V65.6c0-2-0.1-4-0.1-6h0.1c0.7,1.6,1.6,3.5,2.5,5.1
		l10.3,18.6H133.8z M186.4,84.2c2.9,0,7.9-0.5,9.7-1v-6.6c-2.4,0.2-5.8,0.4-8.8,0.4c-5.3,0-7.9-1.9-7.9-9.8V63
		c0-7.9,2.6-9.7,7.8-9.7c2.9,0,6.4,0.2,8.8,0.4v-6.6c-1.8-0.5-6.7-1-9.7-1c-10.1,0-15.8,3.8-15.8,16.9v4.2
		C170.6,80.3,176.3,84.2,186.4,84.2z M274.6,67.1l4.9,2.3c3.1,1.5,3.9,2.3,3.9,4.4c0,2.8-1.6,4-5.3,4c-4.5-0.2-7.8-0.5-10.8-0.8v6
		c2.3,0.6,7.3,1.2,11.8,1.2c8.3,0,13.2-3.5,13.2-11.1c0-5.7-2.8-8.6-8.6-11.2l-4.7-2.1c-3-1.4-3.8-2.1-3.8-4c0-2.5,1.8-3.3,5.2-3.3
		c3.8,0,6.8,0.3,10.1,0.6v-5.9c-2.1-0.5-6.1-1.2-10.6-1.2c-8.7,0-13.6,2.8-13.6,10C266.3,62.2,269.5,64.8,274.6,67.1z M74.4,65.6
		c0-2-0.1-4-0.1-6h0.1c0.7,1.6,1.6,3.5,2.5,5.1l10.3,18.6h9.2V47h-8v17.7c0,2.2,0.1,4.6,0.1,6.3h-0.1c-0.7-1.6-1.7-3.6-2.6-5.2
		L75.4,47h-9v36.3h8V65.6z M165.4,76.9h-15.3v-8.6h14.3v-6.4h-14.3v-8.6h15.3v-6.4h-24.2v36.4h24.2V76.9L165.4,76.9z M38.5,63.3
		c0-7.6,2.4-10,6.6-10c4.2,0,6.6,2.4,6.6,10v3.7c0,7.7-2.4,10-6.6,10c-4.1,0-6.6-2.3-6.6-10V63.3z M45.1,84.2
		c9.1,0,15.4-4.6,15.4-17.2v-3.7c0-12.6-6.4-17.2-15.4-17.2c-9.1,0-15.4,4.6-15.4,17.2V67C29.7,79.6,36,84.2,45.1,84.2z M292.3,73.1
		L292.3,73.1v0.1V73.1z M16.2,84.2c2.9,0,7.9-0.5,9.7-1v-6.6C23.4,76.8,20,77,17.1,77c-5.3,0-7.9-1.9-7.9-9.8V63
		c0-7.9,2.6-9.7,7.8-9.7c2.9,0,6.4,0.2,8.8,0.4v-6.6c-1.8-0.5-6.7-1-9.7-1C6,46.1,0.3,49.8,0.3,63v4.2C0.3,80.3,6,84.2,16.2,84.2z"
		/>
</g>
</svg>
