<?xml version="1.0" encoding="utf-8"?>
<!-- Generator: Adobe Illustrator 26.4.1, SVG Export Plug-In . SVG Version: 6.00 Build 0)  -->
<svg version="1.1" id="Capa_1" xmlns="http://www.w3.org/2000/svg" xmlns:xlink="http://www.w3.org/1999/xlink" x="0px" y="0px"
	 viewBox="0 0 44.3 135" style="enable-background:new 0 0 44.3 135;" xml:space="preserve">
<style type="text/css">
	.st0{fill:#AE824D;}
</style>
<g>
	<path class="st0" d="M20.3,60.3c-0.1,8.1-0.1,16.2-0.2,24.3c0,5.8-0.1,11.7-0.1,17.5c0,2.5-0.7,5.9,0.5,8.2c1.6,3.1,5,2.6,8,2.6
		c4.1,0,9.9-0.9,13.8,0.7c0.1,2.1,2.7,21.4,1.1,21.4c-6-0.1-12-0.1-18-0.2c-4.7-0.1-9.4,0.1-14.1-0.2c-2.6-0.1-9.9-0.3-11.1-3
		c-0.5-1.2,0.5-4,0.6-5.5c0.1-3.5,0.1-7,0.2-10.6c0.2-23.8,0.6-47.7,1-71.6C2.2,29.3,2.4,14.6,2.6,0c6.1,0,12.1,0.1,18.2,0.1
		c4.5,0,9.1,0.1,13.6,0.1c7.1,0,9.3,3,9.5,10.1c0.1,3.5,1.5,8.4-2,10.4c-5.6,3.2-14.7,0.6-20.9,0.7l-0.4,17.3L39.3,39l-0.6,21.3
		H20.3z"/>
</g>
</svg>
