<?xml version="1.0" encoding="utf-8"?>
<!-- Generator: Adobe Illustrator 26.4.1, SVG Export Plug-In . SVG Version: 6.00 Build 0)  -->
<svg version="1.1" id="logo-amp-lr-header" xmlns="http://www.w3.org/2000/svg" xmlns:xlink="http://www.w3.org/1999/xlink" x="0px"
	 y="0px" viewBox="0 0 200 35.4" style="enable-background:new 0 0 200 35.4;" xml:space="preserve">
<style type="text/css">
	.st0{fill:#FF0102;}
</style>
<g>
	<path class="st0" d="M189.8,24.5c-1,0-1.8-0.5-1.8-2.7c0-2.3,0.6-3,2-3.1l1-0.1v5.2C190.7,24.3,190.4,24.5,189.8,24.5 M186.7,27.3
		c2.3,0,3.6-1,4.5-2.1h0.1c0.5,1.4,1.8,2.1,3.8,2.1c2.3,0,3.7-0.8,4.4-1.4v-1c-0.3,0-1.1-0.1-1.5-0.3c-0.6-0.3-0.7-0.8-0.7-2.2v-8.6
		c0-3.5-2.8-4.7-7-4.7c-5.6,0-8,1.5-8,3.6c0,1.6,1,2.3,2.5,2.3c1.9,0,2.8-0.8,3-3.3c0.1-0.9,0.3-1.1,1.1-1.1c1.4,0,2,0.6,2,3.6v2.6
		l-2.6,0.7c-4.6,1.1-6.6,2.5-6.6,5.5C181.8,25.6,183.6,27.3,186.7,27.3 M174.3,27.3c3.9,0,6.3-2,7.3-3.3v-1.2
		c-1.3,0.6-2.6,1.2-4.5,1.2c-3.8,0-5.1-2.6-5.1-7.3c0-5.3,1.8-6,3.2-6c1.1,0,1.2,0.2,1.3,1.3c0.1,1.6,0.7,3,2.7,3
		c1.6,0,2.5-1.1,2.5-2.6c0-2.2-2.2-3.3-5.6-3.3c-5,0-10.5,2.3-10.5,9.1C165.7,23.8,168.8,27.3,174.3,27.3 M160.5,8
		c1.9,0,3.4-1.3,3.4-3.1c0-1.9-1.5-3.1-3.4-3.1c-1.9,0-3.4,1.3-3.4,3.1C157.1,6.8,158.6,8,160.5,8 M155.5,26.9h10.4v-1.1l-0.6-0.2
		c-1.3-0.3-1.4-0.4-1.4-2V13.5c0-1.5,0-2.6,0.1-4.1l-0.4-0.3l-8.2,0.8v0.8l1.1,0.8c1,0.8,1.1,0.9,1.1,2.3v9.8c0,1.5-0.1,1.6-1.4,2
		l-0.6,0.2L155.5,26.9L155.5,26.9z M145.3,26.9h10.6v-1.1l-0.6-0.2c-1.4-0.4-1.5-0.4-1.5-2V6c0-2.2,0.1-3.9,0.1-3.9l-0.4-0.3
		l-8.3,0.7v0.9l1.1,0.6c1.1,0.6,1.2,0.8,1.2,2.5v17.1c0,1.5-0.1,1.6-1.5,2l-0.6,0.2L145.3,26.9L145.3,26.9z M135.7,25.8
		c-1,0-1.8-0.5-2.3-1.1V12.9c0.4-0.1,1.1-0.4,2.1-0.4c2.1,0,3.3,1.4,3.3,6.1C138.8,24.8,137.7,25.8,135.7,25.8 M135.3,27.3
		c5.8,0,10.1-2.8,10.1-10c0-5.9-3.3-8.1-6.4-8.1c-2.4,0-4.2,1.2-5.4,2.4h-0.2c0,0,0.1-1.5,0.1-3.4V6c0-2.2,0.1-3.9,0.1-3.9l-0.4-0.3
		l-8.2,0.7v0.9l1.1,0.6c1,0.5,1.1,0.8,1.1,2.5V25C129,26.5,131.6,27.3,135.3,27.3 M112.5,7.9l5.9-1.2c1.2-0.2,1.7-1.2,1.7-2
		c0-1.2-0.8-2.3-2-2.3c-0.7,0-1.4,0.3-2,1l-3.9,3.9L112.5,7.9z M111,27.3c2.7,0,4.7-1.3,6.4-2.6h0.2l-0.1,2.3l0.4,0.3l7.7-1.1v-0.9
		l-0.8-0.3c-1.1-0.4-1.1-0.6-1.1-2.3V9.4l-0.4-0.3l-8.1,0.8v0.8l1.1,0.7c1,0.7,1.1,0.9,1.1,2.3v9.6c-0.6,0.2-1.4,0.4-2.3,0.4
		c-1.2,0-1.9-0.6-1.9-2.5V9.4l-0.4-0.3l-8.1,0.8v0.8l1.1,0.7c1.1,0.7,1.1,0.9,1.1,2.3v9.1C106.8,25.8,108.5,27.3,111,27.3
		 M95.1,25.8c-1,0-1.8-0.5-2.3-1.1V12.9c0.4-0.1,1.1-0.4,2.1-0.4c2.1,0,3.3,1.4,3.3,6.1C98.3,24.8,97.1,25.8,95.1,25.8 M84.5,33.8
		H95v-1.1l-0.9-0.2c-1.2-0.3-1.3-0.4-1.3-1.9v-1.6c0-1.2-0.1-1.9-0.1-1.9c0.7,0.2,1.7,0.3,2.3,0.3c5.4,0,9.7-2.8,9.7-10
		c0-5.9-3.3-8.1-6.4-8.1c-2.4,0-4.2,1.2-5.6,2.5h-0.2l0.1-2.2l-0.4-0.3l-8,0.8v0.8l1.1,0.8c1,0.8,1.1,0.9,1.1,2.3v16.7
		c0,1.5-0.1,1.6-1.4,2l-0.6,0.2L84.5,33.8L84.5,33.8z M76.3,10.5c1.7,0,2.2,1.2,2.2,5.2L73.9,16C74,11.9,75,10.5,76.3,10.5
		 M76.7,27.3c3.5,0,6.1-1.7,7.4-3.3v-1.2c-1.3,0.7-2.9,1.2-4.7,1.2c-3.4,0-5.3-1.2-5.5-6.6h10.8c-0.2-6-3.2-8.3-8-8.3
		c-4.4,0-8.9,3.1-8.9,9.1C67.7,24,70.7,27.3,76.7,27.3 M55,15.8c-0.8,0-1.1-0.1-1.4-0.1V5.8c0.2-0.1,1-0.2,1.7-0.2
		c2.4,0,2.9,1.4,2.9,5.1C58.3,14.7,57.2,15.8,55,15.8 M43.9,26.9h11.9v-1.1L55,25.5c-1.1-0.3-1.4-0.4-1.4-2.6v-5.7
		c0.3,0,1,0.1,1.4,0.1c1,2.8,3.1,7.5,4.6,9.6h8.6v-1.1l-0.5-0.2c-0.7-0.2-0.9-0.2-1.2-0.8c-1.7-2.5-3.8-6.3-4.9-9.1v-0.1
		c2.9-0.9,4.1-2.4,4.1-5.4c0-4.1-2.9-6.2-10.1-6.2H43.9v1.1l0.9,0.2C46,5.6,46.3,5.7,46.3,8v14.9c0,2.2-0.3,2.4-1.5,2.6l-0.9,0.2
		V26.9z M28.3,24.5c-1,0-1.8-0.5-1.8-2.7c0-2.3,0.6-3,2-3.1l1-0.1v5.2C29.3,24.3,28.9,24.5,28.3,24.5 M25.3,27.3
		c2.3,0,3.6-1,4.5-2.1h0.1c0.5,1.4,1.8,2.1,3.8,2.1c2.3,0,3.7-0.8,4.4-1.4v-1c-0.3,0-1.1-0.1-1.5-0.3c-0.6-0.3-0.7-0.8-0.7-2.2v-8.6
		c0-3.5-2.8-4.7-7-4.7c-5.6,0-8,1.5-8,3.6c0,1.6,1,2.3,2.5,2.3c1.9,0,2.8-0.8,3-3.3c0.1-0.9,0.3-1.1,1.1-1.1c1.4,0,2,0.6,2,3.6v2.6
		l-2.6,0.7c-4.6,1.1-6.6,2.5-6.6,5.5C20.3,25.6,22.1,27.3,25.3,27.3 M0.3,26.9h19.3l0.6-8.6h-1.2c-1.1,2.5-1.7,3.6-2.5,4.9
		c-1,1.7-1.6,2.1-4.1,2.1c-2.4,0-2.5-0.4-2.5-2.8V8c0-2.2,0.3-2.4,1.5-2.6l1.1-0.2V4H0.3v1.1l0.9,0.2C2.4,5.6,2.7,5.7,2.7,8v14.9
		c0,2.2-0.3,2.4-1.5,2.6l-0.9,0.2C0.3,25.8,0.3,26.9,0.3,26.9z"/>
</g>
</svg>
